<svg width="1649" height="1068" viewBox="0 0 1649 1068" fill="none" xmlns="http://www.w3.org/2000/svg">
<path d="M989.387 983.499V940.15C1027.28 896.687 1048.08 841.738 1048.08 784.824V782.087C1048.08 657.422 946.664 556 822.001 556C697.338 556 595.916 657.422 595.916 782.085V784.822C595.916 841.738 616.723 896.686 654.614 940.148V983.497C617.149 988.077 588.03 1020.07 588.03 1058.75C588.03 1063.86 592.172 1068 597.282 1068H1046.72C1051.83 1068 1055.97 1063.86 1055.97 1058.75C1055.97 1020.07 1026.85 988.079 989.387 983.499ZM614.419 784.822V782.085C614.419 667.623 707.54 574.503 822.001 574.503C936.462 574.503 1029.58 667.623 1029.58 782.085V784.822C1029.58 837.514 1010.2 888.411 974.916 928.596H669.086C633.805 888.411 614.419 837.514 614.419 784.822ZM970.884 947.101V982.914H673.117V947.101H970.884ZM607.279 1049.5C611.716 1022.27 635.401 1001.42 663.865 1001.42H980.135C1008.6 1001.42 1032.28 1022.27 1036.72 1049.5H607.279Z" fill="#FFFDFD"/>
<path d="M999.369 728.522C997.883 723.634 992.718 720.876 987.827 722.362C982.938 723.848 980.18 729.017 981.667 733.904C997.154 784.841 985.69 841.74 951.749 882.399C948.474 886.322 948.999 892.156 952.922 895.43C954.653 896.874 956.755 897.579 958.845 897.579C961.492 897.579 964.122 896.448 965.951 894.257C1003.84 848.864 1016.65 785.359 999.369 728.522Z" fill="#FFFDFD"/>
<path d="M977.938 683.235C962.096 658.683 938.858 638.413 908.87 622.989C904.327 620.654 898.748 622.444 896.411 626.986C894.075 631.528 895.865 637.106 900.408 639.444C927.476 653.365 948.33 671.473 962.391 693.267C964.161 696.009 967.136 697.504 970.173 697.504C971.891 697.504 973.629 697.025 975.18 696.025C979.473 693.255 980.708 687.528 977.938 683.235Z" fill="#FFFDFD"/>
<path d="M872.513 610.035C859.689 607.039 846.453 605.52 833.175 605.52C828.066 605.52 823.923 609.661 823.923 614.772C823.923 619.883 828.065 624.024 833.175 624.024C845.038 624.024 856.857 625.381 868.303 628.055C869.011 628.22 869.719 628.299 870.416 628.299C874.617 628.299 878.42 625.417 879.417 621.149C880.579 616.175 877.489 611.199 872.513 610.035Z" fill="#FFFDFD"/>
<rect x="52.5993" y="355.747" width="393" height="498" rx="25" transform="rotate(-25.0429 52.5993 355.747)" fill="black"/>
<rect x="87.4653" y="373.674" width="345" height="436" rx="22" transform="rotate(-25.0429 87.4653 373.674)" fill="white"/>
<g clip-path="url(#clip0)">
<path d="M366.882 488.407L336.13 455.224L306.385 469.122L312.455 513.756L350.119 522.77L366.882 488.407Z" fill="black"/>
<path d="M278.833 402.14C249.388 420.364 230.268 451.414 227.25 485.912L286.451 458.252L278.833 402.14Z" fill="black"/>
<path d="M353.533 447.093L375.478 470.778L396.921 426.821L353.533 447.093Z" fill="black"/>
<path d="M299.064 415.202L303.813 450.14L323.088 441.134L299.064 415.202Z" fill="black"/>
<path d="M380.211 502.787L368.344 527.132L412.561 537.706L380.211 502.787Z" fill="black"/>
<path d="M315.096 533.19L321.62 581.215L341.909 539.604L315.096 533.19Z" fill="black"/>
<path d="M118.742 375.144C114.167 377.281 112.192 382.723 114.329 387.297L128.207 417.001L148.446 361.266L118.742 375.144Z" fill="black"/>
<path d="M396.102 256.522C394.004 251.929 388.58 249.906 383.987 252.003L354.164 265.623L409.722 286.345L396.102 256.522Z" fill="black"/>
<path d="M553.75 616.207C558.325 614.07 560.301 608.628 558.164 604.054L544.285 574.35L524.046 630.086L553.75 616.207Z" fill="black"/>
<path d="M399.146 405.598C370.79 385.798 334.758 380.526 301.918 391.374L340.483 433.007L399.146 405.598Z" fill="black"/>
<path d="M245.262 497.679L293.38 509.196L289.031 477.23L245.262 497.679Z" fill="black"/>
<path d="M500.966 640.59L533.686 550.484L420.786 308.842L330.68 276.122L171.872 350.321L139.152 440.427L252.052 682.069L342.158 714.788L500.966 640.59ZM174.105 468.216C183.059 414.825 217.7 369.252 266.747 346.336C315.795 323.42 372.976 326.092 419.673 353.482C422.516 355.12 424.264 358.157 424.251 361.438C424.239 364.719 422.469 367.742 419.614 369.359C416.759 370.976 413.256 370.939 410.435 369.262C368.925 344.908 318.091 342.53 274.487 362.902C230.884 383.274 200.091 423.79 192.136 471.256C191.613 474.495 189.394 477.206 186.321 478.358C183.249 479.511 179.795 478.928 177.27 476.832C174.745 474.736 173.538 471.448 174.105 468.216V468.216ZM452.386 441.273C474.35 488.132 465.937 543.605 431.068 581.845C396.198 620.084 341.734 633.565 293.053 616.005C244.373 598.445 211.056 553.3 208.627 501.606C208.594 501.544 208.565 501.481 208.538 501.416C208.503 501.341 208.563 501.253 208.553 501.167C206.29 449.469 235.335 401.481 282.187 379.512L282.237 379.488C329.143 357.64 384.586 366.142 422.79 401.04C422.821 401.107 422.931 401.126 422.991 401.189C423.025 401.25 423.055 401.314 423.08 401.379C435.367 412.629 445.325 426.184 452.386 441.273V441.273ZM253.165 637.428C248.846 634.86 247.409 629.288 249.947 624.951C252.486 620.614 258.049 619.139 262.402 621.648C303.913 646.003 354.747 648.381 398.351 628.009C441.954 607.636 472.747 567.12 480.702 519.655C481.225 516.415 483.444 513.705 486.516 512.552C489.589 511.4 493.043 511.982 495.568 514.078C498.092 516.174 499.3 519.462 498.733 522.694C489.778 576.086 455.138 621.658 406.09 644.575C357.043 667.491 299.862 664.819 253.165 637.428Z" fill="black"/>
<path d="M289.029 739.611L318.733 725.733L262.997 705.494L276.875 735.198C279.013 739.773 284.454 741.749 289.029 739.611Z" fill="black"/>
<path d="M228.089 512.373C234.532 554.457 264.901 588.93 305.835 600.629L296.055 528.614L228.089 512.373Z" fill="black"/>
<path d="M330.384 604.963C367.723 607.092 403.555 589.969 425.355 559.581L360.1 543.981L330.384 604.963Z" fill="black"/>
<path d="M388.802 485.169L437.487 537.706C453.813 499.188 446.619 454.721 418.979 423.317L388.802 485.169Z" fill="black"/>
</g>
<rect x="1238.18" y="188.676" width="393" height="498" rx="25" transform="rotate(25.4181 1238.18 188.676)" fill="black"/>
<rect x="1246.55" y="226.976" width="345" height="436" rx="22" transform="rotate(25.4181 1246.55 226.976)" fill="white"/>
<g clip-path="url(#clip1)">
<path d="M1335.95 515.5L1341.96 470.66L1312.31 456.567L1281.75 489.663L1298.78 524.448L1335.95 515.5Z" fill="black"/>
<path d="M1346.42 392.679C1313.62 381.573 1277.51 386.595 1248.98 406.228L1308 434.275L1346.42 392.679Z" fill="black"/>
<path d="M1359.31 478.905L1355.02 510.906L1402.57 499.46L1359.31 478.905Z" fill="black"/>
<path d="M1349.23 416.596L1325.31 442.5L1344.53 451.632L1349.23 416.596Z" fill="black"/>
<path d="M1333.34 534.933L1307.01 541.28L1327.01 582.111L1333.34 534.933Z" fill="black"/>
<path d="M1268.44 504.071L1235.56 539.676L1280.57 528.833L1268.44 504.071Z" fill="black"/>
<path d="M1265.33 252.033C1260.77 249.865 1255.31 251.805 1253.15 256.366L1239.07 285.979L1294.94 266.105L1265.33 252.033Z" fill="black"/>
<path d="M1533.38 390.415C1535.58 385.873 1533.69 380.402 1529.15 378.196L1499.66 363.867L1519.05 419.904L1533.38 390.415Z" fill="black"/>
<path d="M1356.35 740.969C1360.91 743.136 1366.37 741.196 1368.53 736.635L1382.61 707.023L1326.74 726.896L1356.35 740.969Z" fill="black"/>
<path d="M1420.35 487.665C1417.57 453.192 1398.69 422.049 1369.42 403.629L1361.87 459.873L1420.35 487.665Z" fill="black"/>
<path d="M1251.37 427.61L1273.12 472.05L1295.01 448.346L1251.37 427.61Z" fill="black"/>
<path d="M1303.94 715.784L1394.26 683.655L1508.74 442.758L1476.61 352.44L1318.29 277.203L1227.98 309.332L1113.5 550.229L1145.63 640.547L1303.94 715.784ZM1228.8 353.978C1275.67 326.894 1332.87 324.597 1381.77 347.834C1430.66 371.071 1465 416.869 1473.61 470.318C1474.15 473.554 1472.93 476.834 1470.39 478.913C1467.85 480.993 1464.39 481.553 1461.33 480.38C1458.26 479.207 1456.06 476.482 1455.56 473.24C1447.91 425.723 1417.39 385.006 1373.92 364.349C1330.45 343.691 1279.6 345.737 1237.93 369.819C1235.1 371.477 1231.6 371.491 1228.75 369.856C1225.91 368.22 1224.16 365.185 1224.17 361.904C1224.18 358.623 1225.94 355.598 1228.8 353.978V353.978ZM1426.73 551.434C1404.57 598.203 1356.44 627.03 1304.75 624.482C1253.06 621.934 1207.99 588.513 1190.55 539.793C1173.1 491.072 1186.7 436.639 1225.02 401.857C1225.05 401.793 1225.08 401.729 1225.11 401.668C1225.15 401.593 1225.26 401.583 1225.32 401.52C1263.74 366.864 1319.24 358.715 1366.01 380.861L1366.06 380.884C1412.77 403.149 1441.51 451.318 1438.92 502.998C1438.88 503.064 1438.94 503.161 1438.93 503.247C1438.9 503.312 1438.87 503.376 1438.84 503.437C1437.99 520.075 1433.87 536.383 1426.73 551.434V551.434ZM1148.63 522.669C1147.86 517.703 1151.25 513.048 1156.21 512.245C1161.17 511.442 1165.84 514.793 1166.68 519.748C1174.33 567.264 1204.85 607.981 1248.32 628.639C1291.79 649.296 1342.64 647.251 1384.31 623.169C1387.14 621.51 1390.64 621.496 1393.49 623.132C1396.33 624.767 1398.08 627.802 1398.07 631.083C1398.06 634.365 1396.3 637.389 1393.44 639.009C1346.57 666.093 1289.37 668.39 1240.47 645.154C1191.58 621.917 1157.24 576.118 1148.63 522.669Z" fill="black"/>
<path d="M1092.66 615.377L1122.27 629.45L1102.4 573.582L1088.33 603.195C1086.16 607.755 1088.1 613.21 1092.66 615.377Z" fill="black"/>
<path d="M1229.11 423.721C1200.76 455.48 1193.5 500.845 1210.54 539.862L1259.85 486.474L1229.11 423.721Z" fill="black"/>
<path d="M1222.83 561.552C1244.95 591.703 1280.97 608.436 1318.28 605.903L1288.77 545.649L1222.83 561.552Z" fill="black"/>
<path d="M1352.4 530.343L1342.88 601.334C1382.97 589.404 1412.69 555.548 1419.31 514.24L1352.4 530.343Z" fill="black"/>
</g>
<rect x="624" width="393" height="498" rx="25" fill="black"/>
<rect x="648" y="31" width="345" height="436" rx="22" fill="white"/>
<g clip-path="url(#clip2)">
<path d="M852.583 253.224L838.768 210.143H805.936L792.542 253.151L822.85 277.261L852.583 253.224Z" fill="black"/>
<path d="M809.328 137.795C774.936 141.842 744.471 161.88 727.134 191.857H792.478L809.328 137.795Z" fill="black"/>
<path d="M857.977 210.143L867.833 240.89L905.867 210.143H857.977Z" fill="black"/>
<path d="M822.128 158.193L811.641 191.857H832.917L822.128 158.193Z" fill="black"/>
<path d="M858.571 271.894L837.515 288.927L873.099 317.224L858.571 271.894Z" fill="black"/>
<path d="M786.709 271.875L772.29 318.147L808.286 289.037L786.709 271.875Z" fill="black"/>
<path d="M675.714 45.5714C670.665 45.5714 666.571 49.6648 666.571 54.7143V87.5006L708.501 45.5714H675.714Z" fill="black"/>
<path d="M977.212 55.5063C977.256 50.457 973.198 46.3283 968.149 46.2845L935.364 46L976.928 88.2913L977.212 55.5063Z" fill="black"/>
<path d="M967.786 448.11C972.836 448.11 976.929 444.017 976.929 438.967L976.929 406.181L935 448.11L967.786 448.11Z" fill="black"/>
<path d="M916.866 191.857C899.558 161.915 869.144 141.886 834.8 137.814L852.117 191.857H916.866Z" fill="black"/>
<path d="M738.471 210.143L777.191 240.945L786.782 210.143H738.471Z" fill="black"/>
<path d="M909.643 447.857L977.429 380.072V113.357L909.643 45.5714L734.357 45.5714L666.571 113.357V380.072L734.357 447.857H909.643ZM686.475 153.329C717.188 108.747 767.863 82.1217 822 82.1217C876.137 82.1217 926.812 108.747 957.525 153.329C959.407 156.017 959.705 159.507 958.304 162.475C956.904 165.443 954.021 167.432 950.75 167.689C947.479 167.945 944.321 166.429 942.475 163.715C915.176 124.079 870.128 100.407 822 100.407C773.872 100.407 728.824 124.079 701.525 163.715C699.679 166.429 696.521 167.945 693.25 167.689C689.979 167.432 687.096 165.443 685.696 162.475C684.295 159.507 684.593 156.017 686.475 153.329V153.329ZM950 246.714C950.064 298.465 918.96 345.163 871.182 365.047C823.405 384.932 768.354 374.09 731.683 337.575C695.012 301.059 683.937 246.055 703.618 198.193C703.615 198.123 703.615 198.053 703.618 197.983C703.618 197.901 703.71 197.846 703.737 197.763C723.57 149.968 770.198 118.786 821.945 118.714H822C873.745 118.775 920.376 149.946 940.217 197.736C940.217 197.809 940.309 197.873 940.336 197.955C940.341 198.025 940.341 198.096 940.336 198.166C946.707 213.559 949.99 230.055 950 246.714V246.714ZM686.475 340.099C683.65 335.944 684.707 330.287 688.842 327.433C692.978 324.579 698.642 325.597 701.525 329.713C728.824 369.349 773.872 393.022 822 393.022C870.128 393.022 915.176 369.349 942.475 329.713C944.321 327 947.479 325.483 950.75 325.74C954.021 325.996 956.904 327.986 958.304 330.954C959.705 333.921 959.407 337.412 957.525 340.099C926.812 384.681 876.137 411.307 822 411.307C767.863 411.307 717.188 384.681 686.475 340.099Z" fill="black"/>
<path d="M675.714 447.857H708.501L666.571 405.928V438.714C666.571 443.764 670.665 447.857 675.714 447.857Z" fill="black"/>
<path d="M716.693 216.186C704.717 257.041 717.637 301.128 749.771 329.055L771.394 259.67L716.693 216.186Z" fill="black"/>
<path d="M770.178 343.373C803.105 361.107 842.817 360.762 875.431 342.458L822.914 300.703L770.178 343.373Z" fill="black"/>
<path d="M873.813 259.569L895.682 327.775C926.778 299.789 939.083 256.457 927.335 216.305L873.813 259.569Z" fill="black"/>
</g>
<defs>
<clipPath id="clip0">
<rect x="3.86151" y="388.452" width="512" height="512" transform="rotate(-25.0429 3.86151 388.452)" fill="white"/>
</clipPath>
<clipPath id="clip1">
<rect x="1181.93" y="171.91" width="512" height="512" transform="rotate(25.4181 1181.93 171.91)" fill="white"/>
</clipPath>
<clipPath id="clip2">
<rect x="566" y="9" width="512" height="512" fill="white"/>
</clipPath>
</defs>
</svg>
